<?xml version="1.0" encoding="UTF-8"?><svg id="Calque_2" xmlns="http://www.w3.org/2000/svg" viewBox="0 0 156.75 127.76"><defs><style>.cls-1{fill:#0740af;}</style></defs><g id="pictos"><g id="twitter-bleuklein"><path class="cls-1" d="M52.5,127.76h-6.42c-.16-.06-.32-.07-.49-.07-1.07,0-2.14-.1-3.2-.17-2.53-.17-5.04-.47-7.54-.86-6.8-1.07-13.39-2.9-19.78-5.46-3.88-1.56-7.63-3.38-11.26-5.45-1.15-.66-2.29-1.33-3.41-2.05-.14-.09-.33-.15-.4-.43,4.21,.45,8.39,.53,12.57,.2,4.19-.32,8.31-1.05,12.35-2.17,4.06-1.13,7.96-2.67,11.74-4.54,4.21-2.09,9.8-5.88,10.52-6.76-.11-.11-.25-.07-.38-.08-.84-.07-1.68-.11-2.52-.21-3.96-.47-7.71-1.64-11.24-3.5-3.83-2.03-7.12-4.72-9.88-8.06-2.46-2.98-4.32-6.3-5.59-9.96-.25-.72-.25-.71,.49-.59,1.49,.24,2.98,.43,4.49,.43,1.19,0,2.38,.02,3.57-.09,1.75-.15,3.47-.44,5.17-.86,.09-.02,.22,0,.25-.18-.18-.04-.35-.09-.52-.13-2.98-.7-5.81-1.78-8.49-3.29-3.67-2.07-6.82-4.74-9.44-8.03-2.6-3.25-4.5-6.87-5.69-10.86-.88-2.93-1.31-5.94-1.36-9-.01-.68,.04-.7,.64-.38,2.02,1.07,4.12,1.92,6.32,2.54,2.2,.62,4.44,.98,6.72,1.14,.2,.01,.41,.06,.62-.03-.05-.18-.21-.23-.33-.32-1.2-.84-2.34-1.76-3.4-2.76-2.37-2.21-4.38-4.72-6-7.54-2.67-4.64-4.07-9.63-4.3-14.97-.07-1.73,.02-3.46,.24-5.19,.53-4.16,1.81-8.07,3.86-11.73,.26-.47,.3-.47,.64-.06,1.34,1.63,2.73,3.22,4.19,4.74,1.95,2.04,3.97,4,6.09,5.86,3.04,2.67,6.24,5.13,9.6,7.37,3.41,2.28,6.96,4.32,10.65,6.12,3.32,1.63,6.72,3.04,10.22,4.25,8.01,2.77,16.24,4.41,24.7,4.87,.61,.03,.62,.03,.49-.58-.43-1.98-.61-3.99-.69-6.01-.05-1.21,.04-2.41,.15-3.61,.25-3.02,.95-5.95,2.05-8.77,1.98-5.09,5.08-9.39,9.23-12.92,2.93-2.5,6.22-4.4,9.84-5.72,3.05-1.11,6.21-1.73,9.45-1.89,1.67-.08,3.34-.03,5.01,.15,2.45,.26,4.85,.79,7.17,1.6,4.79,1.68,8.96,4.34,12.51,7.96,.31,.32,.6,.41,1.04,.32,5.92-1.24,11.56-3.26,16.92-6.08,.84-.44,1.67-.9,2.49-1.38,.11-.06,.21-.18,.43-.06-2.54,7.48-7.17,13.3-13.85,17.53,.12,.07,.19,.04,.26,.03,3.99-.49,7.89-1.38,11.72-2.61,1.91-.61,3.78-1.33,5.62-2.12,.13-.06,.26-.16,.43-.07,0,.2-.14,.34-.23,.48-1.62,2.37-3.39,4.61-5.3,6.75-2.14,2.4-4.46,4.61-6.93,6.67-1.01,.84-2.03,1.65-3.1,2.41-.25,.18-.35,.39-.3,.69,.03,.18,.04,.36,.04,.54,.06,3.69,.03,7.38-.33,11.06-.27,2.81-.64,5.6-1.16,8.37-1.02,5.45-2.5,10.77-4.44,15.96-2.38,6.38-5.39,12.44-9.05,18.17-3.86,6.04-8.33,11.59-13.5,16.57-1.25,1.2-2.52,2.38-3.83,3.51-3.43,2.96-7.07,5.63-10.92,8.02-5.7,3.53-11.73,6.35-18.09,8.48-4.35,1.46-8.79,2.57-13.31,3.35-4.39,.75-8.8,1.23-13.25,1.35-.18,0-.36,0-.53,.07Z"/></g></g></svg>