<?xml version="1.0" encoding="UTF-8"?><svg id="Calque_2" xmlns="http://www.w3.org/2000/svg" viewBox="0 0 127.48 127.3"><defs><style>.cls-1{fill:#0740af;}</style></defs><g id="pictos"><g id="linkedin-bleuklein"><path class="cls-1" d="M0,118.67V8.61c.33-.38,.13-.86,.25-1.28C1.2,3.86,3.29,1.46,6.77,.33c.36-.12,.79-.01,1.09-.33H119.62c.49,.29,1.08,.29,1.6,.49,3.95,1.5,6.24,5.02,6.25,9.11,.01,35.39,0,70.78,0,106.17,0,1.14,.03,2.28-.15,3.44-.37,2.45-1.49,4.46-3.38,6-1.75,1.42-3.78,2.1-6.08,2.1-36.03-.02-72.06-.02-108.09,0-1.91,0-3.67-.41-5.28-1.43-2.48-1.57-3.93-3.8-4.31-6.72-.02-.18-.05-.35-.19-.48Zm49.85-40.6c0,9.77,0,19.55,0,29.32,0,.81,.03,.84,.83,.84,5.65,0,11.3,0,16.94,0,.73,0,.78-.06,.79-.79,0-.14,0-.28,0-.42,0-9.22,0-18.45,0-27.67,0-2.65,.05-5.3,.61-7.91,.38-1.76,.95-3.44,2.02-4.91,1.58-2.16,3.76-3.29,6.38-3.68,1.97-.29,3.91-.3,5.82,.27,2.2,.66,3.82,2.02,4.84,4.09,1.17,2.36,1.46,4.92,1.67,7.49,.07,.83,.02,1.66,.02,2.5,0,10.07,0,20.15,0,30.22,0,.8,.02,.82,.79,.82,5.65,0,11.3,0,16.94,0,.68,0,.73-.06,.74-.72,.11-7.23-.11-14.47,.14-21.7,.14-4.04,.21-8.1-.11-12.14-.16-1.99,.06-3.99-.25-5.98-.16-.99-.17-2.01-.36-3-.25-1.35-.5-2.7-.88-4.03-.74-2.61-1.77-5.06-3.42-7.24-2.19-2.91-5.09-4.78-8.52-5.85-2.8-.88-5.69-1.19-8.62-1.24-1.51-.03-3.01,.02-4.49,.29-1.49,.28-2.94,.73-4.35,1.33-3.66,1.56-6.54,4.03-8.73,7.33-.14,.21-.28,.41-.43,.6-.09,.11-.2,.21-.37,.15-.16-.05-.21-.18-.22-.33-.01-.18-.02-.35-.02-.53,0-2.11,0-4.21,0-6.32,0-.92-.02-.94-.96-.94-5.29,0-10.59,0-15.88,0-.16,0-.32,0-.48,0-.33,0-.48,.18-.48,.5,0,.21,0,.42,0,.64,0,9.67,0,19.33,0,29Zm-12.14,0c0-9.76,0-19.51,0-29.27,0-.87-.02-.89-.9-.89-5.56,0-11.12,0-16.68,0-.89,0-.91,.02-.91,.93,0,19.49,0,38.99,0,58.48,0,.9,0,.9,.93,.9,5.54,0,11.08,0,16.62,0q.93,0,.93-.95c0-9.74,0-19.48,0-29.21Zm1.5-49.57c.17-5.81-4.83-10.8-10.72-10.77-6.03,.03-10.86,4.81-10.8,10.79,.07,6.23,4.65,10.74,10.76,10.79,6.08,.05,10.84-4.81,10.75-10.81Z"/></g></g></svg>