<?xml version="1.0" encoding="UTF-8"?>
<svg id="Calque_2" data-name="Calque 2" xmlns="http://www.w3.org/2000/svg" viewBox="0 0 131.08 127.84">
  <defs>
    <style>
      .cls-1, .cls-2 {
        fill: #0740af;
      }

      .cls-2 {
        fill-rule: evenodd;
      }
    </style>
  </defs>
  <g id="pictos">
    <g>
      <path class="cls-2" d="m65.54,0C29.35,0,0,29.34,0,65.54c0,28.96,18.78,53.52,44.82,62.19,3.27.61,4.48-1.42,4.48-3.15,0-1.56-.06-6.73-.09-12.2-18.23,3.96-22.08-7.73-22.08-7.73-2.98-7.58-7.28-9.59-7.28-9.59-5.95-4.07.45-3.98.45-3.98,6.58.46,10.05,6.75,10.05,6.75,5.85,10.02,15.33,7.12,19.07,5.45.59-4.24,2.29-7.13,4.16-8.76-14.56-1.66-29.86-7.28-29.86-32.39,0-7.16,2.56-13,6.75-17.59-.68-1.65-2.92-8.32.63-17.34,0,0,5.5-1.76,18.03,6.72,5.23-1.45,10.84-2.18,16.41-2.21,5.57.02,11.18.75,16.42,2.21,12.51-8.48,18-6.72,18-6.72,3.57,9.03,1.32,15.69.64,17.34,4.2,4.59,6.75,10.44,6.75,17.59,0,25.17-15.33,30.71-29.93,32.34,2.35,2.03,4.45,6.02,4.45,12.14,0,8.77-.08,15.83-.08,17.99,0,1.74,1.18,3.79,4.5,3.14,26.03-8.68,44.78-33.23,44.78-62.18C131.08,29.34,101.73,0,65.54,0h0Z"/>
      <path class="cls-1" d="m24.82,94.1c-.14.33-.66.42-1.12.2-.48-.21-.74-.66-.59-.98.14-.34.65-.43,1.13-.2.48.21.75.66.58.99h0Zm2.65,2.96c-.31.29-.92.16-1.34-.3-.43-.46-.51-1.07-.19-1.36.32-.29.92-.15,1.35.3.43.46.51,1.07.18,1.36h0Zm2.59,3.77c-.4.28-1.06.02-1.47-.56-.4-.58-.4-1.28.01-1.56.4-.28,1.05-.03,1.47.55.4.59.4,1.29-.01,1.58h0Zm3.54,3.65c-.36.4-1.12.29-1.68-.25-.57-.53-.73-1.28-.37-1.68.36-.4,1.13-.29,1.7.25.57.53.74,1.28.36,1.67h0Zm4.88,2.12c-.16.51-.9.75-1.64.53-.74-.22-1.23-.82-1.07-1.34.15-.52.89-.76,1.64-.53.74.22,1.23.82,1.07,1.34Zm5.36.39c.02.54-.61.99-1.39,1-.78.02-1.42-.42-1.43-.95,0-.55.62-.99,1.4-1,.78-.01,1.42.42,1.42.96h0Zm4.99-.85c.09.53-.45,1.07-1.22,1.21-.76.14-1.47-.19-1.56-.71-.09-.54.46-1.08,1.22-1.22.77-.13,1.47.18,1.57.72h0Z"/>
    </g>
  </g>
</svg>