<?xml version="1.0" encoding="UTF-8"?>
<svg id="Calque_1" data-name="Calque 1" xmlns="http://www.w3.org/2000/svg" viewBox="0 0 476.03 1004.6">
  <defs>
    <style>
      .cls-1 {
        fill: #0740af;
      }
    </style>
  </defs>
  <path class="cls-1" d="m447.83,817.92h-119.46c-23.91,0-43.92-18.08-46.41-41.88l6.77-351.12c-2.87-27.55,18.71-51.49,46.44-51.49h79.16c28.44,0,51.49-23.08,51.49-51.52V51.52c0-28.47-23.05-51.52-51.49-51.52H51.5C21.9,0-1.63,24.86.09,54.42l43.34,763.7c.14,103.01,83.67,186.48,186.71,186.48h57.72c94.17,0,184.88-60.02,188.15-157.87.52-15.82-12.37-28.82-28.19-28.82ZM238.12,236.86l2.35,40.87.34,6.34h-50.32c-23.85,0-43.23-19.32-43.23-43.26v-94.98c0-23.88,19.37-43.26,43.23-43.26h95.04c23.82,0,43.26,19.37,43.26,43.26v36.6h-39.27c-29.59,0-53.13,24.86-51.41,54.42Z"/>
</svg>