<?xml version="1.0" encoding="UTF-8"?><svg id="Calque_2" xmlns="http://www.w3.org/2000/svg" viewBox="0 0 153.05 147.44"><g id="Calque_1-2"><g><path d="M89.54,58.68L125.05,26.1c3.01-2.77,3.03-7.68,0-9.72C114.46,9.23,102.86,3.78,90.58,.19c-3.5-1.02-7.27,2.13-7.47,6.21l-2.39,48.13c-.25,5.12,5.04,7.6,8.82,4.14Z"/><path d="M89.54,88.76c-3.77-3.46-9.07-.98-8.82,4.14l2.39,48.13c.2,4.09,3.97,7.24,7.47,6.21,12.28-3.59,23.87-9.03,34.47-16.19,3.02-2.04,3-6.95,0-9.72l-35.51-32.58Z"/><path d="M151.63,54.85c-.55-3.6-5-5.69-8.79-4.15l-44.63,18.17c-4.74,1.93-4.76,7.78-.03,9.74l44.53,18.41c3.78,1.56,8.24-.5,8.81-4.1,2.01-12.63,2.04-25.44,.1-38.08Z"/><path d="M65.72,120.04h-17.53c-3.51,0-6.45-2.66-6.81-6.15l.99-51.53c-.42-4.04,2.75-7.56,6.82-7.56h11.62c4.17,0,7.55-3.38,7.55-7.56V7.56C68.36,3.38,64.98,0,60.81,0H7.56C3.21,0-.24,3.65,.01,7.99L6.37,120.07c.02,15.12,12.28,27.37,27.41,27.37h8.47c13.82,0,27.13-8.81,27.61-23.17,.08-2.32-1.82-4.23-4.14-4.23ZM34.94,34.76l.35,6,.05,.93h-7.38c-3.5,0-6.35-2.84-6.35-6.35v-13.94c0-3.5,2.85-6.35,6.35-6.35h13.95c3.49,0,6.34,2.85,6.34,6.35v5.37h-5.76c-4.34,0-7.8,3.65-7.55,7.99Z"/></g></g></svg>