<svg xmlns="http://www.w3.org/2000/svg" id="Calque_2" viewBox="0 0 42.04 87.2">
  <defs>
    <style>
      .cls-1{fill:#151515;}
    </style>
  </defs>
  <g id="Calque_1-2"><g>
    <path class="cls-1" d="M4.37,77.95c.06-.28-.18-.43-.28-.64-.26-.59-.6-1.14-.66-1.8-.01-.14-.12-.23-.19-.34-.17-.27-.28-.51-.06-.86,.15-.24,.1-.62,.09-.94,0-.31,.25-.75,.18-.81-.5-.44,.19-.91-.08-1.34-.1-.16,.08-.34,.16-.51,.07-.16,.21-.33,0-.5-.03-.03-.07-.12-.05-.14,.68-.62-.05-1.64,.66-2.27,.1-.09,.12-.36,.08-.53-.14-.63,.09-1.19,.3-1.76,.19-.52,.23-1.1,.39-1.6,.23-.72,.08-1.52,.54-2.17,.11-.16,.03-.37,.07-.54,.24-.96,.61-1.89,.74-2.89,.05-.39,.4-.74,.4-1.18,0-.26-.2-.56,.23-.74,.13-.05,.21-.46,.15-.66-.11-.36,.06-.63,.19-.9,.19-.39,.32-.77,.12-1.19-.06-.13-.11-.3,0-.37,.3-.17,.28-.37,.13-.62,.07-.03,.14-.06,.21-.09,.04,.02,.07,.04,.11,.06-.02-.04-.03-.08-.05-.12,.2-.59,.5-1.16,.59-1.76,.12-.79,.31-1.57,.28-2.38,0-.03-.02-.06,0-.08,.62-.69,.23-1.69,.75-2.44,.22-.32,.23-.81,.21-1.29-.02-.69-.17-1.48,.39-2.09,.09-.1,.11-.23,.06-.37-.09-.28-.1-.55-.05-.85,.05-.32-.12-.67-.43-.79-.28-.11-.51-.4-.7-.42-.57-.05-.74-.79-1.34-.7-.41-.53-1.1-.69-1.57-1.15-.17-.16-.37-.31-.59-.41-.84-.38-1.53-.93-2.04-1.71-.03-.04-.07-.08-.11-.12-1.38-1.15-1.64-1.48-2.49-3.14-.22-.43-.53-.78-.6-1.33-.07-.55-.14-1.07-.08-1.62,.06-.55,.03-1.1,.04-1.65,0-.11-.03-.25,.03-.31,.46-.49,.33-1.17,.55-1.75,.14-.36,.29-.65,.51-.97,.69-1.02,1.31-2.1,1.81-3.23,.08-.19,.17-.33,.37-.38,.26-.06,.45-.23,.53-.44,.28-.74,.93-1.18,1.38-1.79,.64-.87,1.49-1.53,2.16-2.35,.57-.7,1.24-1.26,1.86-1.89,.36-.37,.87-.46,1.23-.84,.51-.54,1.07-1.01,1.19-1.82,.04-.28-.07-.51-.08-.76-.04-.76,.09-1.53-.06-2.29-.07-.33-.12-.63,.05-.97,.13-.26-.07-.57-.08-.87-.01-.45-.2-.9,.06-1.33,.29-.49-.18-1.12,.32-1.56,.03-.02,.03-.13,.02-.14-.67-.35,.06-.85-.15-1.34-.22-.52,.02-1.21,.29-1.79,.3-.67,.92-.98,1.47-1.34,.29-.19,.69,0,.92,.29,.2,.24,.4,.52,.4,.85,0,.22-.06,.42,.24,.49,.05,.01,.1,.14,.09,.2-.11,.54,.16,1.04,.16,1.55,0,.47,.08,.95,0,1.42-.02,.1-.06,.23-.02,.31,.31,.67,.41,1.39,.35,2.11-.03,.34,.55,.45,.24,.83-.07-.07-.17-.16-.23-.07-.08,.13,.09,.12,.16,.16,.09,.11,.31,.17,.09,.37-.07,.07,0,.18,.12,.22h0c-.03,.18-.11,.36-.08,.54,.11,.71,.36,.8,.99,.44,1.02-.59,2.17-.94,3.2-1.49,.91-.48,1.93-.55,2.82-1.06,.31-.18,.8-.11,1.21-.07,.42,.04,.82,.07,1.24-.05,.24-.07,.65-.24,.81,.22-.02,.04-.04,.07-.06,.11,.04-.02,.08-.04,.11-.06,.85,.07,1.56,.52,2.3,.87,.13,.06,.19,.25,.29,.36,.11,.11,.24,.29,.36,.29,.82,.03,1.14,.61,1.52,1.2,.49,.76,.89,1.58,1.29,2.38,.41,.84,.7,1.74,.46,2.75-.29,1.27-.41,2.59-.69,3.87-.15,.7-.38,1.42-.83,2.01-.1,.13-.15,.23-.16,.41-.02,.35-.19,.65-.52,.84-.21,.12-.36,.28-.45,.53-.04,.14-.2,.32-.32,.33-.4,.05-.48,.25-.48,.62,0,.16-.17,.45-.27,.45-.72,.03-.84,.95-1.53,1-.43,.74-1.2,.65-1.88,.78-.23,.05-.36,.04-.39-.22-.02-.18-.15-.24-.28-.34-.28-.22-.23-.9,.07-1.07,.13-.08,.18-.17,.22-.3,.09-.29,.28-.55,.51-.69,.71-.41,1.14-1.12,1.78-1.6,.27-.21,.57-.41,.6-.8,.02-.24,.23-.35,.37-.5,.66-.73,1.14-1.56,1.35-2.53,.15-.67,.25-1.35,.38-2.01,.25-1.18-.42-2.05-.75-3.03-.16-.49-.48-.92-.85-1.31-.17-.18-.31-.35-.56-.4-.12-.02-.26-.1-.34-.19-.78-.81-1.83-.89-2.83-1.02-.78-.1-1.56,.3-2.36,.07-.08-.02-.15,.02-.18,.11-.14,.47-.55,.51-.94,.59-.68,.14-1.27,.6-2,.57-.31,.65-1.06,.78-1.51,1.26-.2,.21-.4,.41-.69,.51-.26,.09-.4,.32-.17,.55,.3,.3,.23,.67,.28,1.03,.02,.17-.07,.34,.12,.51,.23,.19,.15,.39,.02,.68-.2,.44-.15,.97,.06,1.46,.18,.41,.48,.81,.21,1.31-.04,.08-.05,.24,0,.31,.41,.49,.28,1.15,.53,1.69,.03,.07,.07,.18,.04,.23-.28,.42,0,.84,.05,1.24,.05,.43-.02,.84-.02,1.25,0,.17,.04,.32,.15,.44,.33,.36,.29,.8,.3,1.24,.01,.57,0,1.17,.2,1.7,.18,.5,.06,1.05,.33,1.51,.07,.11,0,.18-.04,.28-.18,.47-.06,1.11,.29,1.47,.12,.12,.13,.2,.08,.34-.07,.2-.15,.39-.24,.58-.12,.24,.29,.15,.31,.45,.05,.78,.23,1.55,.35,2.33,.03,.16-.02,.32-.09,.46-.09,.18-.1,.39-.03,.54,.32,.69,.24,1.42,.33,2.13,.06,.44,.19,.89,.23,1.35,.07,.82,.24,1.63,.31,2.46,.07,.85,.39,1.66,1.12,2.26,.44,.36,.76,.87,1.4,.9,.02,0,.06,.02,.07,.04,.15,.95,1.3,.54,1.67,1.24,.08,.15,.43,.15,.66,.21,.28,.08,.58,.14,.65,.49,0,.05,.04,.14,.05,.14,.56-.05,.79,.47,1.2,.67,.38,.18,.79,.32,.92,.8,.03,.12,.14,.17,.25,.12,.62-.28,.96,.29,1.17,.57,.69,.92,1.62,1.52,2.48,2.22,.36,.3,.77,.59,.85,1.1,.03,.19,.15,.25,.29,.33,.59,.33,.91,.88,1.14,1.49,.04,.1,.08,.19,.19,.24h0c-.02,.66,.57,1.04,.77,1.61,.12,.34,.06,.91,.63,1-.35,.4,.5,.77,.03,1.19-.15,.13,.07,.21,.1,.32,.11,.35,.2,.7,.28,1.06,.2,.94-.03,1.84-.19,2.74-.17,.91-.2,1.84-.52,2.73-.34,.95-.61,1.92-1.35,2.69-.31,.32-.45,.81-.7,1.2-.08,.13-.12,.45-.46,.25-.18-.11-.16,.14-.23,.23-.46,.57-.84,1.21-1.46,1.64-.1,.07-.14,.25-.33,.24-.17,0-.34,.1-.4,.23-.26,.59-.91,.77-1.26,1.25-.14,.19-.39,.26-.6,.37-.25,.13-.53,.2-.74,.48-.22,.3-.59,.5-.96,.63-.75,.26-1.17,.92-1.72,1.42-.34,.31-.27,.7-.25,1.14,.04,1.18,.55,2.31,.3,3.5-.02,.07-.02,.17,.02,.23,.32,.48,.42,.97,.34,1.57-.03,.25,.28,.61,.05,.92-.26,.34,.35,.63,0,.94,.26,.28,.09,.7,.32,1.01,.25,.33,.28,.72,.17,1.12-.12,.46-.19,.93-.16,1.42,.02,.35-.16,.54-.53,.54-.46-.01-.98,.15-1.16-.5-.74-.34-.72-1.06-.79-1.7-.16-1.53-.37-3.05-.87-4.52-.08-.24,.15-.5,.07-.81-.18-.71-.12-1.44-.13-2.17,0-.6-.27-1.12-.98-1.29-.23,.6-.95,.58-1.47,.88-.42,.24-.97,.23-1.35,.59-.73-.11-1.28,.57-2.01,.46-.09-.01-.2,.05-.29,.1-.95,.56-1.97,.91-3.08,.95-.08,0-.17,0-.24,.03-.85,.38-1.81,.27-2.68,.55-.2,.06-.42,.08-.63,.06-.71-.06-1.42,.04-2.13-.06-.83-.11-1.62-.28-2.3-.82-.46-.37-.96-.68-1.45-1.01h0ZM11.71,24.13s.04-.01,.06-.03c0,0,0-.03,.01-.05-.02,.03-.04,.05-.06,.08-.05-.01-.1-.02-.16-.01-.08-.42,0-.87,.07-1.24,.12-.55-.09-1.07,.02-1.63,.12-.61,.23-1.27,.14-1.95-.07-.53-.37-1.13,.04-1.68,.08-.11-.05-.25-.18-.31-.12-.06-.32-.05-.36-.13-.25-.46-.56-.23-.75-.03-.51,.57-1.37,.85-1.47,1.77,0,.05-.05,.13-.07,.13-.62-.06-.65,.56-.91,.86-.46,.52-1,.95-1.43,1.51-.43,.56-.8,1.15-1.32,1.64-.49,.46-.61,1.23-1.27,1.57-.04,.02-.08,.08-.08,.12,0,.97-.73,1.63-1.07,2.46-.47,1.13-.51,2.27-.6,3.44,0,.09,.06,.22,.14,.27,.22,.14,.23,.4,.33,.6,.26,.49,.78,1.14,1.24,1.43,.06,.04,.09,.08,.06,.13-.33,.48,.17,.66,.38,.78,.48,.26,1.04,.38,1.09,1.07,0,.03,.09,.04,.13,.07,.79,.59,1.63,1.11,2.58,1.4,.28,.09,.39,.14,.24,.47-.04,.1,.43-.09,.6,.1,.05,.05,.03,.15,.05,.23,.04,.16,.18,.17,.31,.2h0s.02,.14,.03,.14c.34-.03,.7-.03,1.01-.14,.18-.06,.02-.34,.08-.51,.04-.12,.08-.25,.15-.36,.13-.19,.23-.37,.03-.56-.09-.09-.1-.2-.03-.28,.31-.38,.08-.89,.33-1.29,.09-.14,.12-.35-.04-.51-.1-.1-.16-.27-.08-.37,.22-.29,.36-.58,.15-.94-.19-.33,.15-.58,.14-.93-.01-.43-.05-.88-.03-1.32,.03-1.05,.4-2.08,.09-3.14-.02-.06,.02-.16,.06-.22,.15-.18,.05-.38,.07-.55,.04-.43-.12-.87,0-1.27,.09-.26,.08-.44-.06-.64-.15-.22-.08-.34,.17-.37,.07,.14,.12,.1,.16-.01Zm2.9,15.52c.16,.03,.21,.29,.47,.17,.23-.1,.17,.46,.36,.33,.44-.3,.59,.11,.76,.29,.23,.23,.45,.33,.76,.32,.16,0,.33-.02,.44,.13,.22,.28,.42,.09,.62-.03,.23-.13,.13-.35,.06-.49-.28-.63-.09-1.33-.29-1.99-.08-.26-.3-.7,0-1.04-.25-.33-.34-.68-.2-1.08,.02-.06-.09-.18-.16-.26-.09-.12-.07-.23-.06-.37,.04-.53,.38-1.13-.3-1.53-.04-.02-.03-.15-.01-.22,.17-.52-.02-1.06,.14-1.58,.04-.11,.05-.24-.04-.29-.39-.2-.27-.58-.37-.9-.1-.33,0-.64-.04-.95-.04-.44-.35-.87-.04-1.33,.05-.07,.02-.16-.08-.19-.37-.1-.28-.4-.29-.65-.01-.26-.07-.52,.07-.78,.16-.29-.39-.31-.25-.62,.04-.09,.02-.21,0-.32-.12-.54,.27-1.18-.29-1.65-.02-.01-.02-.05-.02-.08-.02-.8-.16-1.58-.36-2.35-.08-.32,.02-.57,.12-.84,.13-.36-.38-.43-.33-.75,0-.03,.02-.05,.02-.08,.04-.36,.19-.74-.22-1.01-.05-.03-.03-.15-.05-.23-.14-.49-.09-.98,.03-1.46,.05-.18,.17-.31-.18-.33-.24,0-.21-.37-.36-.55-.07-.08,.19-.28,.36-.37,.06-.03,.07-.08,0-.21-.49,.17-.53-.06-.4-.52,.07-.26-.29-.46-.56-.33-.14,.07-.17,.21-.04,.32,.46,.42,.48,.47,.17,.93-.09,.13-.27,.3-.21,.4,.29,.48,.03,.97,.1,1.45,.12,.88,.13,1.76-.24,2.6-.06,.13-.1,.25-.05,.38,.12,.28-.02,.61,.04,.83,.15,.63,.16,1.2,0,1.84-.08,.31,.08,.74,.09,1.12,.02,.45-.26,.93,.11,1.35-.22,.43-.1,.93-.28,1.39-.18,.48-.44,1.03,.09,1.51,.08,.08,.04,.35-.1,.29-.32-.13-.41-.08-.22,.21,.15,.22,.13,.36-.01,.56-.07,.09-.09,.34-.04,.37,.38,.23,.16,.47,.05,.71-.06,.12-.07,.25-.04,.39,.1,.51-.34,1.03,.04,1.53,.01,.02-.04,.11-.07,.12-.28,.14-.08,.31-.08,.49-.03,.51,.11,1.04-.08,1.55-.2,.53-.07,1.12-.2,1.65-.17,.71,0,1.15,.58,1.57,.27,.19,.41,.46,.8,.28,.17-.08,.21,.1,.23,.23-.03,.06-.07,.11-.1,.17,0,0,.05,.04,.08,.06,.02-.06,.04-.13,.07-.19Zm-1.98,37.01c.21,.02,.42-.03,.63-.08,.66-.15,1.33-.26,1.96-.54,.7-.32,1.48-.39,2.2-.67,1.11-.43,2.19-.9,3.31-1.3,.89-.32,1.47-.76,1.7-1.67,.03-.13,.09-.21,0-.35-.31-.49-.25-1.06-.34-1.6-.11-.63,.22-1.31-.25-1.89,.17-.52,.07-.97-.33-1.35-.03-.03,.02-.15,.03-.22,.07-.65-.33-1.29-.08-1.95-.4-.39-.17-.83-.09-1.25,.03-.14,0-.23-.06-.36-.18-.35-.5-2.05-.48-2.39,.01-.18-.12-.87-.22-1.03-.07-.12-.03-.2,.04-.28,.16-.2,.09-.36-.01-.57-.29-.62-.32-1.32-.37-1.97-.05-.6,.02-1.2-.26-1.77-.16-.32,.16-.63,.08-.91-.23-.83-.32-1.69-.46-2.53-.16-.95-.16-1.91-.4-2.85-.14-.55-.1-1.16-.36-1.69-.04-.08-.04-.13,.04-.19,.29-.23,.19-.54,.05-.77-.18-.31,.17-.63-.1-.91-.47-.48-.66-1.29-1.54-1.28-.15,0-.14-.13-.16-.23-.03-.11-.08-.18-.18-.24-.21-.11-.6,.05-.59-.01,.04-.31-.13-.35-.35-.42-.54-.17-.97-.64-1.59-.61-.07,0-.17-.06-.2-.12-.26-.63-.86-.4-1.31-.52-.37-.1-.54,.06-.6,.43-.09,.63-.25,1.24-.37,1.87-.44,2.31-.96,4.6-1.47,6.9-.09,.42-.07,.84-.2,1.25-.54,1.68-.97,3.41-1.33,5.13-.34,1.6-.85,3.15-1.21,4.74-.4,1.76-.88,3.51-1.3,5.27-.23,.98-.39,1.97-.59,2.96-.03,.16-.07,.32-.02,.47,.2,.51,.05,.99-.11,1.48-.07,.22-.22,.44-.1,.67,.33,.68,.25,1.43,.43,2.13,.02,.09-.04,.21,.08,.27,.54,.27,.94,.84,1.62,.84,.14,0,.27,.07,.35,.17,.22,.29,.51,.17,.79,.2,.18,.02,.29-.14,.44-.1,.29,.07,.66,0,.82,.37,.26-.23,.51-.38,.9-.28,.36,.09,.74-.01,1.07-.16,.18-.08,.31-.17,.5-.08Zm11.69-6.7c0,.15,0,.23,.02,.31,.04,.29,.18,.54,.29,.8,.07,.18-.03,.4,.26,.52,.28,.12,.48-.02,.65-.12,.73-.42,1.47-.83,2.1-1.39,.86-.77,1.86-1.37,2.65-2.22,.54-.58,1.07-1.16,1.57-1.77,.87-1.07,1.74-2.13,1.88-3.56,.03-.27,.53-.23,.31-.58-.15-.24-.07-.46,.06-.67,.11-.17,.15-.34,.11-.53-.06-.31-.16-.6,.15-.86,.09-.07,.17-.29,.01-.43-.27-.24-.33-.5-.32-.89,0-.25-.38-.55-.43-.88-.13-.89-.66-1.61-1.08-2.36-.26-.48-.55-.95-.91-1.38-.54-.64-1.05-1.29-1.7-1.82-.93-.76-1.75-1.64-2.72-2.34-.24-.17-.58-.15-.75-.34-.41-.46-.96-.71-1.44-1.06-.49-.36-1.17-.44-1.52-1.03-.02-.04-.09-.1-.13-.09-.47,.09-.78-.26-.97-.53-.37-.52-.6,.06-.89,.05-.29-.02-.05,.34-.06,.53-.01,.16-.01,.32,.09,.46,.27,.37,.19,.77,.06,1.14-.05,.15-.08,.24,.08,.31,.17,.06,.17,.18,.11,.31-.17,.37,0,.7,.07,1.06,.07,.35,.2,.69,.13,1.11-.09,.59,.07,1.25,.24,1.85,.09,.31,.23,.58,.12,.91-.19,.59,.3,1.15,.1,1.74,.5,.74,.43,1.62,.53,2.43,.06,.5,.36,.97,.23,1.51-.09,.36,.03,.73,.06,1.09,.07,.83,.5,1.61,.34,2.45-.05,.25,.34,.32,.18,.61-.24,.43-.11,.87,.14,1.25,.12,.18,.22,.52,.18,.55-.33,.19-.05,.4-.06,.59-.02,.24-.08,.46,.22,.57-.31,.42,.02,.9-.11,1.34-.04,.12-.14,.27-.01,.37,.38,.31,.33,.68,.2,1.01Zm-.26-24.99l.04,.03v-.04s-.04,.01-.04,.01ZM5.72,74.7l.02-.03h-.04s.01,.03,.01,.03Z"></path><path class="cls-1" d="M42.03,75.93c.04,1.25-.46,1.89-1.6,2.2-.15,.04-.29,.12-.44,.19-.12,.06-.28,.13-.37,.04-.38-.38-.91-.53-1.32-.85-.26-.2-.2-.59-.32-.88-.15-.37,.02-.59,.32-.79,.11-.08,.18-.26,.22-.41,.26-.93,1.03-1.32,1.79-1.7,.34-.17,.84,.17,.91,.64,.05,.31,.09,.52,.42,.66,.45,.19,.39,.64,.38,.92Z"></path><path class="cls-1" d="M16.03,8.8s.02-.03,.03-.04c-.01,.01-.02,.03-.03,.04,0,0,0,0,0,0Z"></path><path class="cls-1" d="M34.71,53.52s.02-.03,.03-.04c-.01,.01-.02,.03-.03,.04,0,0,0,0,0,0Z"></path><path class="cls-1" d="M4.36,77.95s-.02,.03-.03,.05c.01-.01,.02-.03,.03-.04,0,0,0,0,0,0Z"></path><path class="cls-1" d="M15.82,8.21c-.07-.04-.23-.03-.16-.16,.06-.1,.17,0,.23,.07-.03,.03-.05,.06-.08,.09Z"></path><path class="cls-1" d="M14.61,39.64c-.02,.06-.04,.13-.07,.19-.03-.02-.08-.05-.08-.06,.03-.06,.06-.12,.1-.17,0,0,.05,.04,.05,.04Z"></path><path class="cls-1" d="M26.27,7.38s-.08,.04-.11,.06c.02-.04,.04-.07,.06-.11,0,0,.05,.05,.05,.05Z"></path><path class="cls-1" d="M11.72,24.13l.06-.08s0,.04-.01,.05c-.02,.01-.04,.02-.06,.03h0Z"></path><path class="cls-1" d="M11.71,24.13c-.05,.12-.1,.15-.17,.01,0,0,.02-.02,.02-.02,.05,0,.1,0,.16,.01,0,0,0,0,0,0Z"></path><polygon class="cls-1" points="24.07 44.96 24.11 44.95 24.1 44.99 24.07 44.96"></polygon><path class="cls-1" d="M7.75,52.53s.03,.08,.05,.12c-.04-.02-.07-.04-.11-.06,.02-.02,.04-.04,.06-.06Z"></path><polygon class="cls-1" points="5.72 74.7 5.71 74.66 5.75 74.67 5.72 74.7"></polygon><path class="cls-1" d="M9.48,37.39s.04-.05,.06-.07c0,.01,0,.04,0,.04-.02,.01-.04,.02-.06,.02,0,0,0,0,0,0Z"></path></g></g></svg>